D:\school\WTK\thesis\model\3dpredictsim\Results\batch_windlass\Pog_s1_tmt_aCst_d05_k800_WL20_ig24_act_TTC_GRF.mot
nRows=27
nColumns=19

name D:\school\WTK\thesis\model\3dpredictsim\Results\batch_windlass\Pog_s1_tmt_aCst_d05_k800_WL20_ig24_act_TTC_GRF.mot
datacolumns 19
datarows 27
range 0.6114779097 0.9294464227
endheader
time 	ground_force_vx	ground_force_vy	ground_force_vz	ground_force_px	ground_force_py	ground_force_pz	1_ground_force_vx	1_ground_force_vy	1_ground_force_vz	1_ground_force_px	1_ground_force_py	1_ground_force_pz	ground_torque_x	ground_torque_y	ground_torque_z	1_ground_torque_x	1_ground_torque_y	1_ground_torque_z
        0.6114779097	       85.4998850745	      357.4061230051	        2.8850232268	        0.3862325881	        0.0000000000	        0.0337662499	      -80.7128365580	       62.1420883846	      -12.0810787284	        0.9267589194	        0.0000000000	       -0.0608669222	        0.0000000000	        0.0000000000	        0.0000000000	        0.0000000000	        0.0000000000	        0.0000000000	
        0.6237074679	       51.6088781688	      254.9602010407	       11.3778604003	        0.3976910699	        0.0000000000	        0.0292552728	     -162.3726145566	      163.1014756232	      -31.0304043907	        0.9397174782	        0.0000000000	       -0.0604446332	        0.0000000000	        0.0000000000	        0.0000000000	        0.0000000000	        0.0000000000	        0.0000000000	
        0.6359370261	       37.1585791900	      208.2811968627	       16.7316644811	        0.4017592908	        0.0000000000	        0.0275287196	      -99.5554028460	      456.1437887225	        2.1653512674	        0.9579834141	        0.0000000000	       -0.0619707970	        0.0000000000	        0.0000000000	        0.0000000000	        0.0000000000	        0.0000000000	        0.0000000000	
        0.6481665843	       34.7432067922	      164.8298704968	       14.5764821711	        0.4020579148	        0.0000000000	        0.0274579440	     -118.0839914797	      744.5603011444	       23.6480062225	        0.9675109591	        0.0000000000	       -0.0629542339	        0.0000000000	        0.0000000000	        0.0000000000	        0.0000000000	        0.0000000000	        0.0000000000	
        0.6603961425	       22.7179956585	      107.9472047507	       14.2986622845	        0.4020596961	        0.0000000000	        0.0277105350	     -158.9756256233	      902.5745594590	       28.9033057530	        0.9778587921	        0.0000000000	       -0.0624498609	        0.0000000000	        0.0000000000	        0.0000000000	        0.0000000000	        0.0000000000	        0.0000000000	
        0.6726257007	        0.3419924717	       43.5607992038	        8.8677299000	        0.4004409336	        0.0000000000	        0.0279570294	     -172.4231345213	      949.9185877079	       28.1640195409	        0.9890844443	        0.0000000000	       -0.0610426383	        0.0000000000	        0.0000000000	        0.0000000000	        0.0000000000	        0.0000000000	        0.0000000000	
        0.6848552589	       -1.0490757533	        1.0364562112	       -0.0427334009	        0.0000000000	        0.0000000000	        0.0000000000	     -154.9790828665	      887.4449538403	       23.6559257667	        0.9959731245	        0.0000000000	       -0.0598888880	        0.0000000000	        0.0000000000	        0.0000000000	        0.0000000000	        0.0000000000	        0.0000000000	
        0.6970848170	       -2.5018183791	        2.0191946999	       -0.2737351120	        0.0000000000	        0.0000000000	        0.0000000000	     -131.1568459804	      794.9174677230	       19.1956328343	        1.0002859986	        0.0000000000	       -0.0592059162	        0.0000000000	        0.0000000000	        0.0000000000	        0.0000000000	        0.0000000000	        0.0000000000	
        0.7093143752	       -0.7183365039	        0.5220727021	       -0.0687544716	        0.0000000000	        0.0000000000	        0.0000000000	     -113.8183457131	      735.0003873140	       16.0817434491	        1.0042721035	        0.0000000000	       -0.0587580706	        0.0000000000	        0.0000000000	        0.0000000000	        0.0000000000	        0.0000000000	        0.0000000000	
        0.7215439334	        0.1622571830	       -0.1127322747	        0.0105094663	        0.0000000000	        0.0000000000	        0.0000000000	     -100.8676534052	      705.2201711149	       15.6371219775	        1.0076188670	        0.0000000000	       -0.0584340707	        0.0000000000	        0.0000000000	        0.0000000000	        0.0000000000	        0.0000000000	        0.0000000000	
        0.7337734916	       -0.0088910483	        0.0058294719	       -0.0004736247	        0.0000000000	        0.0000000000	        0.0000000000	      -87.5710177289	      687.7927014120	       16.8500076369	        1.0105495101	        0.0000000000	       -0.0582057342	        0.0000000000	        0.0000000000	        0.0000000000	        0.0000000000	        0.0000000000	        0.0000000000	
        0.7460030498	       -0.1621837713	        0.1005831185	       -0.0066509934	        0.0000000000	        0.0000000000	        0.0000000000	      -74.9233511121	      672.9039571460	       18.3971817487	        1.0133912241	        0.0000000000	       -0.0580430514	        0.0000000000	        0.0000000000	        0.0000000000	        0.0000000000	        0.0000000000	        0.0000000000	
        0.7582326080	       -0.1246820791	        0.0715639813	       -0.0062119746	        0.0000000000	        0.0000000000	        0.0000000000	      -62.2320219489	      657.9836937307	       20.0903723709	        1.0173864642	        0.0000000000	       -0.0578047196	        0.0000000000	        0.0000000000	        0.0000000000	        0.0000000000	        0.0000000000	        0.0000000000	
        0.7704621662	       -0.0698366833	        0.0373684308	       -0.0038903248	        0.0000000000	        0.0000000000	        0.0000000000	      -52.8645092377	      642.6732574424	       20.4406699106	        1.0226327169	        0.0000000000	       -0.0574249945	        0.0000000000	        0.0000000000	        0.0000000000	        0.0000000000	        0.0000000000	        0.0000000000	
        0.7826917244	       -0.0417178012	        0.0210397251	       -0.0025051364	        0.0000000000	        0.0000000000	        0.0000000000	      -45.9410839829	      629.6770052434	       20.7124847705	        1.0285718804	        0.0000000000	       -0.0569196003	        0.0000000000	        0.0000000000	        0.0000000000	        0.0000000000	        0.0000000000	        0.0000000000	
        0.7949212826	       -0.0304412409	        0.0146213274	       -0.0018861184	        0.0000000000	        0.0000000000	        0.0000000000	      -40.5027144822	      619.2837937836	       20.6509591371	        1.0348972947	        0.0000000000	       -0.0563188639	        0.0000000000	        0.0000000000	        0.0000000000	        0.0000000000	        0.0000000000	        0.0000000000	
        0.8071508408	       -0.0274395741	        0.0126595920	       -0.0016986100	        0.0000000000	        0.0000000000	        0.0000000000	      -36.1445739251	      610.8710330499	       20.2902059735	        1.0412582201	        0.0000000000	       -0.0556669415	        0.0000000000	        0.0000000000	        0.0000000000	        0.0000000000	        0.0000000000	        0.0000000000	
        0.8193803990	       -0.0297323076	        0.0132661964	       -0.0017735914	        0.0000000000	        0.0000000000	        0.0000000000	      -31.7504760361	      603.5967689134	       19.6980147899	        1.0475536971	        0.0000000000	       -0.0549832429	        0.0000000000	        0.0000000000	        0.0000000000	        0.0000000000	        0.0000000000	        0.0000000000	
        0.8316099572	       -0.0374521702	        0.0162500507	       -0.0021024478	        0.0000000000	        0.0000000000	        0.0000000000	      -29.0651638276	      597.9071135730	       19.2737293658	        1.0537044288	        0.0000000000	       -0.0542682891	        0.0000000000	        0.0000000000	        0.0000000000	        0.0000000000	        0.0000000000	        0.0000000000	
        0.8438395154	       -0.0529417605	        0.0224267757	       -0.0027618807	        0.0000000000	        0.0000000000	        0.0000000000	      -26.2033076340	      593.0179614828	       19.0577295490	        1.0595282881	        0.0000000000	       -0.0535641818	        0.0000000000	        0.0000000000	        0.0000000000	        0.0000000000	        0.0000000000	        0.0000000000	
        0.8560690736	       -0.0826283058	        0.0342574425	       -0.0039686659	        0.0000000000	        0.0000000000	        0.0000000000	      -23.0506285929	      587.6428039000	       18.9013251329	        1.0650592836	        0.0000000000	       -0.0528734028	        0.0000000000	        0.0000000000	        0.0000000000	        0.0000000000	        0.0000000000	        0.0000000000	
        0.8682986318	       -0.1373724163	        0.0558470630	       -0.0060670220	        0.0000000000	        0.0000000000	        0.0000000000	      -19.8797343126	      582.3366126831	       19.0330257999	        1.0703815569	        0.0000000000	       -0.0521812765	        0.0000000000	        0.0000000000	        0.0000000000	        0.0000000000	        0.0000000000	        0.0000000000	
        0.8805281900	       -0.2316278010	        0.0925600144	       -0.0094063128	        0.0000000000	        0.0000000000	        0.0000000000	      -16.6433697715	      576.7350206895	       19.2866045101	        1.0755041198	        0.0000000000	       -0.0514863818	        0.0000000000	        0.0000000000	        0.0000000000	        0.0000000000	        0.0000000000	        0.0000000000	
        0.8927577481	       -0.3781672530	        0.1489462938	       -0.0141335953	        0.0000000000	        0.0000000000	        0.0000000000	      -13.4301638160	      570.8477907263	       19.5527936431	        1.0804146776	        0.0000000000	       -0.0507908449	        0.0000000000	        0.0000000000	        0.0000000000	        0.0000000000	        0.0000000000	        0.0000000000	
        0.9049873063	       -0.5786344455	        0.2252211277	       -0.0198549954	        0.0000000000	        0.0000000000	        0.0000000000	      -10.2818605890	      564.9058193858	       19.9162835286	        1.0850715080	        0.0000000000	       -0.0501013090	        0.0000000000	        0.0000000000	        0.0000000000	        0.0000000000	        0.0000000000	        0.0000000000	
        0.9172168645	       -0.8122538559	        0.3132485582	       -0.0255036766	        0.0000000000	        0.0000000000	        0.0000000000	       -7.3786053198	      559.3034310815	       20.1320013160	        1.0894011987	        0.0000000000	       -0.0494334923	        0.0000000000	        0.0000000000	        0.0000000000	        0.0000000000	        0.0000000000	        0.0000000000	
        0.9294464227	       -1.0393530475	        0.3980937626	       -0.0296849321	        0.0000000000	        0.0000000000	        0.0000000000	       -4.6296965476	      554.5929366730	       20.0384915600	        1.0932716814	        0.0000000000	       -0.0488106136	        0.0000000000	        0.0000000000	        0.0000000000	        0.0000000000	        0.0000000000	        0.0000000000	
